<svg xmlns="http://www.w3.org/2000/svg" fill="none" viewBox="0 0 48 48" height="48" width="48"><path stroke="#000000" stroke-linecap="round" stroke-linejoin="round" d="M42.397 25.772c0 3.704 -3.009 10.043 -11.806 10.043 -8.798 0 -12.19 -6.648 -12.19 -10.043 0 -3.395 6.262 -10.043 12.19 -10.043s11.806 6.34 11.806 10.043Z" stroke-width="1"></path><path stroke="#000000" stroke-linecap="round" stroke-linejoin="round" d="M40.688 31.016c-1.87 -2.976 -6.09 -5.244 -10.142 -5.244s-8.354 2.08 -10.327 5.056" stroke-width="1"></path><path stroke="#000000" stroke-linecap="round" stroke-linejoin="round" d="m4.51 47 6.296 -14.963c-3.037 -6 -8.83 -19.763 -7.703 -26.815 3.778 -0.074 12.518 4 14.074 5.26 2.296 -1.334 9.481 -2.815 12.074 -2.519 1.363 -1.6 5.802 -5.309 7.852 -6.963 1.185 1.383 3.66 5.748 4.074 12.148 1.926 1.926 6.148 9.926 2.296 19.926 -3.081 8 -2.271 12.37 -1.481 13.556" stroke-width="1"></path><path stroke="#000000" stroke-linecap="round" stroke-linejoin="round" d="M28.973 7.944c1.352 0 3.037 0.13 4.74 0.76" stroke-width="1"></path><path stroke="#000000" stroke-linecap="round" stroke-linejoin="round" d="m28.413 13.807 2.058 0.749 1.914 -0.75" stroke-width="1"></path><path stroke="#000000" stroke-linecap="round" stroke-linejoin="round" d="M19.325 14.407c0.568 -0.37 2.03 -1.126 3.333 -1.185" stroke-width="1"></path><path stroke="#000000" stroke-linecap="round" stroke-linejoin="round" d="M34.222 11.42c0.675 0.06 2.29 0.37 3.352 1.13" stroke-width="1"></path><path stroke="#000000" stroke-linecap="round" stroke-linejoin="round" d="M9.695 20.074c1.815 -4.667 4.26 -7.778 7.704 -9.74" stroke-width="1"></path><path stroke="#000000" stroke-linecap="round" stroke-linejoin="round" d="M3.029 5.222c2.963 0.815 8.481 5.445 9.963 8.926" stroke-width="1"></path></svg>